<svg width="332" height="354" viewBox="0 0 332 354" fill="none" xmlns="http://www.w3.org/2000/svg">
<g filter="url(#filter0_d_36_190)">
<rect x="8.33948" y="28.7984" width="301.379" height="301.379" rx="20" fill="white"/>
</g>
<g filter="url(#filter1_di_36_190)">
<path d="M7 48.1287C7 37.083 15.9543 28.1287 27 28.1287H289.718C300.764 28.1287 309.718 37.083 309.718 48.1287V142.653H7V48.1287Z" fill="#757575"/>
</g>
<circle cx="85.3584" cy="53.5784" r="16.7433" fill="white"/>
<circle cx="85.0236" cy="52.5738" r="15.7387" fill="#363636"/>
<g filter="url(#filter2_d_36_190)">
<rect x="73.3032" width="23.4406" height="61.6152" rx="11.7203" fill="#838383"/>
</g>
<circle cx="231.36" cy="53.5784" r="16.7433" fill="white"/>
<circle cx="231.025" cy="52.5738" r="15.7387" fill="#363636"/>
<g filter="url(#filter3_d_36_190)">
<rect x="219.304" width="23.4406" height="61.6152" rx="11.7203" fill="#838383"/>
</g>
<path d="M136.148 103.375C136.148 102.578 136.023 101.875 135.773 101.266C135.539 100.641 135.117 100.078 134.508 99.5781C133.914 99.0781 133.086 98.6016 132.023 98.1484C130.977 97.6953 129.648 97.2344 128.039 96.7656C126.352 96.2656 124.828 95.7109 123.469 95.1016C122.109 94.4766 120.945 93.7656 119.977 92.9688C119.008 92.1719 118.266 91.2578 117.75 90.2266C117.234 89.1953 116.977 88.0156 116.977 86.6875C116.977 85.3594 117.25 84.1328 117.797 83.0078C118.344 81.8828 119.125 80.9062 120.141 80.0781C121.172 79.2344 122.398 78.5781 123.82 78.1094C125.242 77.6406 126.828 77.4062 128.578 77.4062C131.141 77.4062 133.312 77.8984 135.094 78.8828C136.891 79.8516 138.258 81.125 139.195 82.7031C140.133 84.2656 140.602 85.9375 140.602 87.7188H136.102C136.102 86.4375 135.828 85.3047 135.281 84.3203C134.734 83.3203 133.906 82.5391 132.797 81.9766C131.688 81.3984 130.281 81.1094 128.578 81.1094C126.969 81.1094 125.641 81.3516 124.594 81.8359C123.547 82.3203 122.766 82.9766 122.25 83.8047C121.75 84.6328 121.5 85.5781 121.5 86.6406C121.5 87.3594 121.648 88.0156 121.945 88.6094C122.258 89.1875 122.734 89.7266 123.375 90.2266C124.031 90.7266 124.859 91.1875 125.859 91.6094C126.875 92.0312 128.086 92.4375 129.492 92.8281C131.43 93.375 133.102 93.9844 134.508 94.6562C135.914 95.3281 137.07 96.0859 137.977 96.9297C138.898 97.7578 139.578 98.7031 140.016 99.7656C140.469 100.812 140.695 102 140.695 103.328C140.695 104.719 140.414 105.977 139.852 107.102C139.289 108.227 138.484 109.188 137.438 109.984C136.391 110.781 135.133 111.398 133.664 111.836C132.211 112.258 130.586 112.469 128.789 112.469C127.211 112.469 125.656 112.25 124.125 111.812C122.609 111.375 121.227 110.719 119.977 109.844C118.742 108.969 117.75 107.891 117 106.609C116.266 105.312 115.898 103.812 115.898 102.109H120.398C120.398 103.281 120.625 104.289 121.078 105.133C121.531 105.961 122.148 106.648 122.93 107.195C123.727 107.742 124.625 108.148 125.625 108.414C126.641 108.664 127.695 108.789 128.789 108.789C130.367 108.789 131.703 108.57 132.797 108.133C133.891 107.695 134.719 107.07 135.281 106.258C135.859 105.445 136.148 104.484 136.148 103.375ZM156.328 112.469C154.562 112.469 152.961 112.172 151.523 111.578C150.102 110.969 148.875 110.117 147.844 109.023C146.828 107.93 146.047 106.633 145.5 105.133C144.953 103.633 144.68 101.992 144.68 100.211V99.2266C144.68 97.1641 144.984 95.3281 145.594 93.7188C146.203 92.0938 147.031 90.7188 148.078 89.5938C149.125 88.4688 150.312 87.6172 151.641 87.0391C152.969 86.4609 154.344 86.1719 155.766 86.1719C157.578 86.1719 159.141 86.4844 160.453 87.1094C161.781 87.7344 162.867 88.6094 163.711 89.7344C164.555 90.8438 165.18 92.1562 165.586 93.6719C165.992 95.1719 166.195 96.8125 166.195 98.5938V100.539H147.258V97H161.859V96.6719C161.797 95.5469 161.562 94.4531 161.156 93.3906C160.766 92.3281 160.141 91.4531 159.281 90.7656C158.422 90.0781 157.25 89.7344 155.766 89.7344C154.781 89.7344 153.875 89.9453 153.047 90.3672C152.219 90.7734 151.508 91.3828 150.914 92.1953C150.32 93.0078 149.859 94 149.531 95.1719C149.203 96.3438 149.039 97.6953 149.039 99.2266V100.211C149.039 101.414 149.203 102.547 149.531 103.609C149.875 104.656 150.367 105.578 151.008 106.375C151.664 107.172 152.453 107.797 153.375 108.25C154.312 108.703 155.375 108.93 156.562 108.93C158.094 108.93 159.391 108.617 160.453 107.992C161.516 107.367 162.445 106.531 163.242 105.484L165.867 107.57C165.32 108.398 164.625 109.188 163.781 109.938C162.938 110.688 161.898 111.297 160.664 111.766C159.445 112.234 158 112.469 156.328 112.469ZM175.594 91.5156V121.75H171.234V86.6406H175.219L175.594 91.5156ZM192.68 99.1094V99.6016C192.68 101.445 192.461 103.156 192.023 104.734C191.586 106.297 190.945 107.656 190.102 108.812C189.273 109.969 188.25 110.867 187.031 111.508C185.812 112.148 184.414 112.469 182.836 112.469C181.227 112.469 179.805 112.203 178.57 111.672C177.336 111.141 176.289 110.367 175.43 109.352C174.57 108.336 173.883 107.117 173.367 105.695C172.867 104.273 172.523 102.672 172.336 100.891V98.2656C172.523 96.3906 172.875 94.7109 173.391 93.2266C173.906 91.7422 174.586 90.4766 175.43 89.4297C176.289 88.3672 177.328 87.5625 178.547 87.0156C179.766 86.4531 181.172 86.1719 182.766 86.1719C184.359 86.1719 185.773 86.4844 187.008 87.1094C188.242 87.7188 189.281 88.5938 190.125 89.7344C190.969 90.875 191.602 92.2422 192.023 93.8359C192.461 95.4141 192.68 97.1719 192.68 99.1094ZM188.32 99.6016V99.1094C188.32 97.8438 188.188 96.6562 187.922 95.5469C187.656 94.4219 187.242 93.4375 186.68 92.5938C186.133 91.7344 185.43 91.0625 184.57 90.5781C183.711 90.0781 182.688 89.8281 181.5 89.8281C180.406 89.8281 179.453 90.0156 178.641 90.3906C177.844 90.7656 177.164 91.2734 176.602 91.9141C176.039 92.5391 175.578 93.2578 175.219 94.0703C174.875 94.8672 174.617 95.6953 174.445 96.5547V102.625C174.758 103.719 175.195 104.75 175.758 105.719C176.32 106.672 177.07 107.445 178.008 108.039C178.945 108.617 180.125 108.906 181.547 108.906C182.719 108.906 183.727 108.664 184.57 108.18C185.43 107.68 186.133 107 186.68 106.141C187.242 105.281 187.656 104.297 187.922 103.188C188.188 102.062 188.32 100.867 188.32 99.6016Z" fill="white"/>
<path d="M169.562 187.5V279H158V201.938L134.688 210.438V200L167.75 187.5H169.562Z" fill="#363636"/>
<defs>
<filter id="filter0_d_36_190" x="0.539477" y="22.9984" width="330.979" height="330.979" filterUnits="userSpaceOnUse" color-interpolation-filters="sRGB">
<feFlood flood-opacity="0" result="BackgroundImageFix"/>
<feColorMatrix in="SourceAlpha" type="matrix" values="0 0 0 0 0 0 0 0 0 0 0 0 0 0 0 0 0 0 127 0" result="hardAlpha"/>
<feMorphology radius="7" operator="dilate" in="SourceAlpha" result="effect1_dropShadow_36_190"/>
<feOffset dx="7" dy="9"/>
<feGaussianBlur stdDeviation="3.9"/>
<feComposite in2="hardAlpha" operator="out"/>
<feColorMatrix type="matrix" values="0 0 0 0 0 0 0 0 0 0 0 0 0 0 0 0 0 0 0.25 0"/>
<feBlend mode="normal" in2="BackgroundImageFix" result="effect1_dropShadow_36_190"/>
<feBlend mode="normal" in="SourceGraphic" in2="effect1_dropShadow_36_190" result="shape"/>
</filter>
<filter id="filter1_di_36_190" x="3" y="24.1287" width="310.718" height="132.524" filterUnits="userSpaceOnUse" color-interpolation-filters="sRGB">
<feFlood flood-opacity="0" result="BackgroundImageFix"/>
<feColorMatrix in="SourceAlpha" type="matrix" values="0 0 0 0 0 0 0 0 0 0 0 0 0 0 0 0 0 0 127 0" result="hardAlpha"/>
<feOffset dy="10"/>
<feGaussianBlur stdDeviation="2"/>
<feComposite in2="hardAlpha" operator="out"/>
<feColorMatrix type="matrix" values="0 0 0 0 0 0 0 0 0 0 0 0 0 0 0 0 0 0 0.6 0"/>
<feBlend mode="normal" in2="BackgroundImageFix" result="effect1_dropShadow_36_190"/>
<feBlend mode="normal" in="SourceGraphic" in2="effect1_dropShadow_36_190" result="shape"/>
<feColorMatrix in="SourceAlpha" type="matrix" values="0 0 0 0 0 0 0 0 0 0 0 0 0 0 0 0 0 0 127 0" result="hardAlpha"/>
<feOffset dy="-4"/>
<feGaussianBlur stdDeviation="5"/>
<feComposite in2="hardAlpha" operator="arithmetic" k2="-1" k3="1"/>
<feColorMatrix type="matrix" values="0 0 0 0 0 0 0 0 0 0 0 0 0 0 0 0 0 0 0.6 0"/>
<feBlend mode="normal" in2="shape" result="effect2_innerShadow_36_190"/>
</filter>
<filter id="filter2_d_36_190" x="73.3032" y="0" width="27.4406" height="67.6152" filterUnits="userSpaceOnUse" color-interpolation-filters="sRGB">
<feFlood flood-opacity="0" result="BackgroundImageFix"/>
<feColorMatrix in="SourceAlpha" type="matrix" values="0 0 0 0 0 0 0 0 0 0 0 0 0 0 0 0 0 0 127 0" result="hardAlpha"/>
<feOffset dx="2" dy="4"/>
<feGaussianBlur stdDeviation="1"/>
<feComposite in2="hardAlpha" operator="out"/>
<feColorMatrix type="matrix" values="0 0 0 0 0 0 0 0 0 0 0 0 0 0 0 0 0 0 0.7 0"/>
<feBlend mode="normal" in2="BackgroundImageFix" result="effect1_dropShadow_36_190"/>
<feBlend mode="normal" in="SourceGraphic" in2="effect1_dropShadow_36_190" result="shape"/>
</filter>
<filter id="filter3_d_36_190" x="219.304" y="0" width="27.4406" height="67.6152" filterUnits="userSpaceOnUse" color-interpolation-filters="sRGB">
<feFlood flood-opacity="0" result="BackgroundImageFix"/>
<feColorMatrix in="SourceAlpha" type="matrix" values="0 0 0 0 0 0 0 0 0 0 0 0 0 0 0 0 0 0 127 0" result="hardAlpha"/>
<feOffset dx="2" dy="4"/>
<feGaussianBlur stdDeviation="1"/>
<feComposite in2="hardAlpha" operator="out"/>
<feColorMatrix type="matrix" values="0 0 0 0 0 0 0 0 0 0 0 0 0 0 0 0 0 0 0.7 0"/>
<feBlend mode="normal" in2="BackgroundImageFix" result="effect1_dropShadow_36_190"/>
<feBlend mode="normal" in="SourceGraphic" in2="effect1_dropShadow_36_190" result="shape"/>
</filter>
</defs>
</svg>
